<svg xmlns="http://www.w3.org/2000/svg" width="40.194" height="40.16" viewBox="0 0 40.194 40.16">
  <path id="Path_2169" data-name="Path 2169" d="M781.5,0a20.079,20.079,0,1,1-20.18,19.571A20.11,20.11,0,0,1,781.5,0m7.939,25.838c0-2.361.009-4.595,0-6.828-.008-1.668-.5-3.114-2.155-3.822a3.908,3.908,0,0,0-4.594.876c-.062.061-.176.069-.275.105-.047-.333-.09-.633-.126-.893H779.22V25.826h3.138c0-1.791-.009-3.52.006-5.249a5.362,5.362,0,0,1,.141-1.363,1.7,1.7,0,0,1,1.943-1.284A1.515,1.515,0,0,1,786,19.495c.085,1.271.076,2.549.095,3.825.012.833,0,1.667,0,2.52ZM776.964,15.263h-3.233V25.834h3.233Zm.336-3.46a1.956,1.956,0,1,0-3.913.017A1.956,1.956,0,1,0,777.3,11.8" transform="translate(-761.313 0)" fill="#005093"/>
</svg>
