<svg xmlns="http://www.w3.org/2000/svg" width="40.187" height="40.189" viewBox="0 0 40.187 40.189">
  <g id="Group_4329" data-name="Group 4329" transform="translate(5582.763 4973.905)">
    <path id="Path_2170" data-name="Path 2170" d="M273.844,40.3a20.095,20.095,0,1,1,20.08-20.074A20.092,20.092,0,0,1,273.844,40.3m-8.693-20.074c0,1.38-.063,2.764.014,4.14a4.363,4.363,0,0,0,4.052,4.437,62.264,62.264,0,0,0,9.007.044,4.253,4.253,0,0,0,4.28-4.329,58.005,58.005,0,0,0-.007-8.593c-.218-2.8-1.98-4.3-4.8-4.4-2.652-.088-5.311-.08-7.962.021a4.576,4.576,0,0,0-4.569,4.539c-.079,1.376-.014,2.76-.011,4.14" transform="translate(-5836.5 -4974.014)" fill="#005093"/>
    <path id="Path_2171" data-name="Path 2171" d="M329.09,68.4c0,1.276.049,2.555-.011,3.829a3.07,3.07,0,0,1-3.227,3.23q-3.879.1-7.764,0a2.828,2.828,0,0,1-3.061-2.774,84.873,84.873,0,0,1,0-8.595,2.561,2.561,0,0,1,2.66-2.666,84.585,84.585,0,0,1,8.593,0c1.766.094,2.665,1.28,2.8,3.049.011.141.017.284.017.425q0,1.755,0,3.51h-.012m-11.543-.145A4.472,4.472,0,0,0,321.92,72.9a4.553,4.553,0,0,0,4.589-4.461,4.488,4.488,0,0,0-4.307-4.5,4.4,4.4,0,0,0-4.654,4.319m8.925-3.3.468-.009c.277-.425.813-.888.758-1.266a1.523,1.523,0,0,0-1.088-.943c-.267-.04-.893.618-.9.971-.008.411.485.831.761,1.247" transform="translate(-5884.658 -5022.188)" fill="#005093"/>
  </g>
</svg>
