<svg id="Group_489" data-name="Group 489" xmlns="http://www.w3.org/2000/svg" xmlns:xlink="http://www.w3.org/1999/xlink" width="86.481" height="69.728" viewBox="0 0 86.481 69.728">
  <defs>
    <clipPath id="clip-path">
      <rect id="Rectangle_289" data-name="Rectangle 289" width="86.481" height="69.728" fill="none" stroke="#2189b9" stroke-width="1"/>
    </clipPath>
  </defs>
  <g id="Group_488" data-name="Group 488" clip-path="url(#clip-path)">
    <path id="Path_358" data-name="Path 358" d="M74.426,33.273c-3.083,7.4-9.379,12.785-15.653,17.47C52.267,55.6,45.551,60.189,38.836,64.749H40.15C33.8,60.4,27.422,56.079,21.228,51.507,15.212,47.068,9.11,42.165,5.565,35.428a25.013,25.013,0,0,1-.736-22.15c3.039-6.344,8.965-11.26,16.3-10.617,8.4.736,15.011,7.755,17.1,15.616a1.312,1.312,0,0,0,2.51,0c2.006-7.5,7.937-14.021,15.764-15.435,9.779-1.767,17.352,6.507,19.322,15.391a25.55,25.55,0,0,1-1.4,15.04c-.627,1.552,1.889,2.227,2.51.692,3.835-9.5,2.24-21.135-5.131-28.52A17.673,17.673,0,0,0,58.568.014,20.976,20.976,0,0,0,45.8,5.293,24.792,24.792,0,0,0,38.23,17.585h2.51c-2-7.518-7.566-14.118-15.042-16.6C18.047-1.559,10.29,1.2,5.4,7.453a26.73,26.73,0,0,0-4.422,23.4c2.2,8.05,7.942,14.259,14.306,19.361C22.8,56.243,30.9,61.554,38.836,67a1.271,1.271,0,0,0,1.313,0c7.1-4.823,14.229-9.66,21.065-14.857,6.484-4.929,12.531-10.519,15.72-18.176.643-1.544-1.874-2.218-2.51-.692" transform="translate(0 0)" fill="#a8c8e9" stroke="#2189b9" stroke-width="1"/>
    <path id="Path_359" data-name="Path 359" d="M220.242,137.13A18.833,18.833,0,1,1,201.41,118.3a18.833,18.833,0,0,1,18.833,18.833" transform="translate(-135.063 -87.511)" fill="#2189b9" stroke="#2189b9" stroke-width="1"/>
    <circle id="Ellipse_65" data-name="Ellipse 65" cx="18.832" cy="18.832" r="18.832" transform="translate(47.514 30.786)" fill="none" stroke="#2189b9" stroke-miterlimit="10" stroke-width="1"/>
    <path id="Path_360" data-name="Path 360" d="M220.242,137.13A18.833,18.833,0,1,1,201.41,118.3a18.833,18.833,0,0,1,18.833,18.833" transform="translate(-135.063 -87.511)" fill="#2189b9" stroke="#2189b9" stroke-width="1"/>
    <path id="Path_361" data-name="Path 361" d="M215.357,133.472a17.531,17.531,0,1,1-14.125-17.2,17.7,17.7,0,0,1,14.125,17.2,1.3,1.3,0,0,0,2.6,0,20.136,20.136,0,1,0-16.209,19.748,20.384,20.384,0,0,0,16.209-19.748,1.3,1.3,0,0,0-2.6,0" transform="translate(-131.479 -83.854)" fill="none"/>
    <path id="Path_362" data-name="Path 362" d="M233.987,154.687v7.294h-7.726v7.726h-7.294v-7.726h-7.726v-7.294h7.726v-7.726h7.294v7.726Z" transform="translate(-156.267 -108.715)" fill="none" stroke="#2189b9" stroke-miterlimit="10" stroke-width="1"/>
    <path id="Path_363" data-name="Path 363" d="M228.987,150.988v7.294l1.3-1.3h-7.726a1.32,1.32,0,0,0-1.3,1.3v7.726l1.3-1.3h-7.294l1.3,1.3v-7.726a1.32,1.32,0,0,0-1.3-1.3h-7.726l1.3,1.3v-7.294l-1.3,1.3h7.726a1.32,1.32,0,0,0,1.3-1.3v-7.726l-1.3,1.3h7.294l-1.3-1.3v7.726a1.32,1.32,0,0,0,1.3,1.3h7.726a1.3,1.3,0,0,0,0-2.6h-7.726l1.3,1.3v-7.726a1.32,1.32,0,0,0-1.3-1.3h-7.294a1.32,1.32,0,0,0-1.3,1.3v7.726l1.3-1.3h-7.726a1.32,1.32,0,0,0-1.3,1.3v7.294a1.32,1.32,0,0,0,1.3,1.3h7.726l-1.3-1.3v7.726a1.32,1.32,0,0,0,1.3,1.3h7.294a1.32,1.32,0,0,0,1.3-1.3v-7.726l-1.3,1.3h7.726a1.32,1.32,0,0,0,1.3-1.3v-7.294a1.3,1.3,0,0,0-2.6,0" transform="translate(-152.568 -105.017)" fill="#a8c8e9" stroke="#2189b9" stroke-width="1"/>
  </g>
</svg>
