<svg id="Group_495" data-name="Group 495" xmlns="http://www.w3.org/2000/svg" xmlns:xlink="http://www.w3.org/1999/xlink" width="59.673" height="72.784" viewBox="0 0 59.673 72.784">
  <defs>
    <clipPath id="clip-path">
      <rect id="Rectangle_292" data-name="Rectangle 292" width="59.673" height="72.784" fill="#2189b9"/>
    </clipPath>
  </defs>
  <g id="Group_494" data-name="Group 494" clip-path="url(#clip-path)">
    <path id="Path_378" data-name="Path 378" d="M19.7,179.719l-.472,3.717a8.593,8.593,0,0,1-.223,1.419,2.972,2.972,0,0,1-2.25,1.932,55.918,55.918,0,0,0-11.1,4.623c-2.492,1.439-5.523,3.528-5.626,6.7-.077,2.367,0,4.748,0,7.116v7.6a1.068,1.068,0,0,0,1.053,1.053H58.614a1.068,1.068,0,0,0,1.053-1.053c0-4.8.015-9.6,0-14.4-.009-2.841-2.124-4.747-4.343-6.221a47.052,47.052,0,0,0-11.214-5.035,7.138,7.138,0,0,1-2.683-1.124,3.176,3.176,0,0,1-.9-2.1l-.526-4.139c-.168-1.326-2.276-1.342-2.105,0l.464,3.655c.206,1.622.452,3.129,1.783,4.261,1.357,1.154,3.5,1.494,5.153,2.087a54.4,54.4,0,0,1,5.819,2.433,19.887,19.887,0,0,1,4.915,3.167,4.065,4.065,0,0,1,1.526,2.711c.088,2.365,0,4.749,0,7.116v7.6l1.053-1.053H1.087l1.053,1.053c0-4.8-.015-9.6,0-14.4.008-2.657,2.994-4.319,5.034-5.45,3.5-1.937,7.239-3.008,10.944-4.417,3.546-1.348,3.294-5.7,3.693-8.837.17-1.34-1.937-1.328-2.105,0" transform="translate(0 -141.094)" fill="#2189b9"/>
    <path id="Path_379" data-name="Path 379" d="M59.043,82.274c-1.876-2.2-2.068-5.354-2.381-8.1l-.713-6.247c-.151-1.319-2.217-1.367-2.105,0,.139,1.7.291,3.4.469,5.1.11,1.047.229,2.094.376,3.137.1.676.253,1.393.3,1.825l1.584-.909A9.388,9.388,0,0,1,51.489,71.2c-.284-.986-.757-2.826.132-3.639a1.985,1.985,0,0,1,1.28-.452c.728,0,.853.432.979,1.093.22,1.149,2.2.905,2.068-.28-.064-.558-.149-1.118-.192-1.679a2.171,2.171,0,0,1,.287-1.449c.607-1.344,1.629-2.758,1.8-4.246l-1.053,1.053a32.907,32.907,0,0,0,7.737-1.5L63.719,60c5.013,2.585,11.41,2.661,16.862,1.572l-1.332-1.015c.176,1.475,1.208,2.9,1.826,4.224.5,1.067.281,1.8.127,3.149-.134,1.172,1.845,1.442,2.068.28.117-.61.192-1.022.857-1.089a1.978,1.978,0,0,1,1.4.448c.888.812.415,2.656.132,3.639a9.39,9.39,0,0,1-5.086,5.871l1.584.909A7.813,7.813,0,0,1,82.3,77.2c.073-.409.128-.822.184-1.234.155-1.145.281-2.293.4-3.441q.235-2.3.427-4.6H81.2c-.1,1.9-.36,3.8-.592,5.69q-.172,1.4-.355,2.791-.054.412-.109.823c-.009.071-.016.143-.028.213.08-.439-.063.16-.117.361a13.046,13.046,0,0,1-1.425,3.87,9.515,9.515,0,0,1-2.444,2.345A13.231,13.231,0,0,1,68,86.666a13.616,13.616,0,0,1-8.956-4.392c-.916-1-2.4.489-1.489,1.489a16.083,16.083,0,0,0,8.234,4.708,14.066,14.066,0,0,0,9.7-1.583c2.21-1.186,4.511-2.911,5.477-5.3A24.572,24.572,0,0,0,82.5,75.3c.313-2.447.67-4.909.8-7.374.074-1.363-1.994-1.336-2.105,0-.28,3.371-.765,6.7-1.148,10.058-.1.871.948,1.207,1.584.909A11.284,11.284,0,0,0,88.1,69.057a3.766,3.766,0,0,0-2.95-3.939,3.054,3.054,0,0,0-3.911,2.528l2.068.28a6.687,6.687,0,0,0-.089-3.479c-.321-.771-.7-1.514-1.074-2.261-.192-.388-.391-.775-.567-1.171-.057-.129-.252-.711-.223-.462a1.074,1.074,0,0,0-1.332-1.015,31.06,31.06,0,0,1-8.266.432,18.892,18.892,0,0,1-6.707-1.654c-1.164-.549-2.5.147-3.686.457a19.215,19.215,0,0,1-4.568.728,1.084,1.084,0,0,0-1.053,1.053c.025-.22-.179.395-.236.524-.164.372-.348.736-.527,1.1-.378.773-.776,1.543-1.092,2.344a6.908,6.908,0,0,0-.043,3.4l2.068-.28a3.039,3.039,0,0,0-3.787-2.554,3.769,3.769,0,0,0-3.073,3.966,11.283,11.283,0,0,0,6.462,9.835c.636.3,1.683-.038,1.584-.909-.383-3.354-.873-6.685-1.148-10.058H53.844l.78,6.835c.36,3.158.787,6.491,2.93,9,.881,1.032,2.364-.463,1.489-1.489" transform="translate(-38.725 -45.877)" fill="#2189b9"/>
    <path id="Path_380" data-name="Path 380" d="M68.838,18.515c-.611-4.022-1.221-8.5,1.172-12.083a5.02,5.02,0,0,1,1.551-1.669,4.858,4.858,0,0,1,1.623-.338c.789-.085,1.6-.017,2.385-.112a2.041,2.041,0,0,0,1.062-.573A10.91,10.91,0,0,1,78.3,2.671a9.2,9.2,0,0,1,4.473-.557c3.646.089,7.248.891,9.989,3.455a9.334,9.334,0,0,1,2.949,5.068c.473,2.575-.011,5.324-.4,7.877-.2,1.325,1.827,1.9,2.03.56.55-3.618,1.257-7.607-.267-11.085a13.15,13.15,0,0,0-6.765-6.511A20.935,20.935,0,0,0,81.228.013a8.7,8.7,0,0,0-4.122.906,12.13,12.13,0,0,0-2.281,1.6l.744-.308a20.67,20.67,0,0,0-3.342.234A5.579,5.579,0,0,0,68.382,5.1c-2.937,4.088-2.282,9.314-1.573,13.979.2,1.335,2.232.768,2.03-.56" transform="translate(-52.267 0)" fill="#2189b9"/>
    <path id="Path_381" data-name="Path 381" d="M66.057,221.33v5.584a1.053,1.053,0,0,0,2.105,0V221.33a1.053,1.053,0,0,0-2.105,0" transform="translate(-52.15 -173.932)" fill="#2189b9"/>
    <path id="Path_382" data-name="Path 382" d="M47.85,262.315c.45-1.286,1.279-2.432,1.405-3.821a11.3,11.3,0,0,0-.476-3.967,9.288,9.288,0,0,0-3.9-5.484,6.87,6.87,0,0,0-6.21-.43,8.576,8.576,0,0,0-4.434,4.956,12.547,12.547,0,0,0-.813,4.3c-.028,1.665.89,2.931,1.419,4.444.444,1.271,2.479.724,2.03-.56-.475-1.358-1.392-2.559-1.338-4.047a10.271,10.271,0,0,1,.9-3.974,5.625,5.625,0,0,1,4.908-3.573,5.626,5.626,0,0,1,4.907,3.573,10.19,10.19,0,0,1,.9,3.812c.077,1.575-.83,2.774-1.332,4.209-.448,1.281,1.585,1.832,2.03.56" transform="translate(-26.388 -195.844)" fill="#2189b9"/>
    <path id="Path_383" data-name="Path 383" d="M38.176,301.625a.226.226,0,0,1-.452,0,.226.226,0,0,1,.452,0c.073,1.348,2.178,1.356,2.105,0a2.331,2.331,0,1,0-2.4,2.327,2.374,2.374,0,0,0,2.4-2.327c.073-1.354-2.033-1.35-2.105,0" transform="translate(-28.121 -236.286)" fill="#2189b9"/>
    <path id="Path_384" data-name="Path 384" d="M86.755,301.625a.226.226,0,0,1-.452,0,.226.226,0,0,1,.452,0c.073,1.348,2.178,1.356,2.105,0a2.331,2.331,0,1,0-2.4,2.327,2.374,2.374,0,0,0,2.4-2.327c.073-1.354-2.033-1.35-2.105,0" transform="translate(-66.473 -236.286)" fill="#2189b9"/>
    <path id="Path_385" data-name="Path 385" d="M209.734,225.588v8.1a1.053,1.053,0,0,0,2.105,0v-8.1a1.053,1.053,0,0,0-2.105,0" transform="translate(-165.58 -177.294)" fill="#2189b9"/>
    <path id="Path_386" data-name="Path 386" d="M199.784,268.562c-.128,3.316-5.131,3.3-5.131,0s5-3.321,5.131,0c.052,1.35,2.157,1.357,2.105,0a4.671,4.671,0,1,0-4.671,4.671,4.743,4.743,0,0,0,4.671-4.671c.052-1.355-2.053-1.353-2.105,0" transform="translate(-152.012 -208.336)" fill="#2189b9"/>
    <path id="Path_387" data-name="Path 387" d="M89.4,209.016l9.961,10.612a1.063,1.063,0,0,0,1.489,0l10.154-10.817c.927-.987-.559-2.479-1.489-1.489L99.366,218.139h1.489l-9.961-10.612c-.929-.99-2.416.5-1.489,1.489" transform="translate(-70.352 -163.419)" fill="#2189b9"/>
  </g>
</svg>
