<svg id="Group_497" data-name="Group 497" xmlns="http://www.w3.org/2000/svg" xmlns:xlink="http://www.w3.org/1999/xlink" width="79.178" height="74.43" viewBox="0 0 79.178 74.43">
  <defs>
    <clipPath id="clip-path">
      <rect id="Rectangle_293" data-name="Rectangle 293" width="79.178" height="74.43" fill="#2189b9"/>
    </clipPath>
  </defs>
  <g id="Group_496" data-name="Group 496" clip-path="url(#clip-path)">
    <path id="Path_388" data-name="Path 388" d="M77.434,150.953H2.275c-.09,0-.382-.049-.46,0-.348.218.7.569.6.655.152-.13,0-1.3,0-1.5v-8.44a3.863,3.863,0,0,0,0-.768c-.01-.044.028-.171,0-.206-.157-.194-.7.644-.714.61.008.018.171-.008.191,0a4.676,4.676,0,0,0,1.353,0h72.9c.224,0,1,.132,1.188,0,.264-.185-.539-.694-.606-.61-.174.217,0,1.358,0,1.627v8.265a5.814,5.814,0,0,0,0,.768c.092.668-.354-.159.4-.362a1.192,1.192,0,0,0,.633,2.3c1.706-.461,1.351-2.363,1.351-3.725v-6.173c0-1.092.365-3.1-.5-3.969a2.116,2.116,0,0,0-1.679-.5H14.207c-4.1,0-8.247-.18-12.345,0a1.791,1.791,0,0,0-1.833,1.863c-.064,1.617,0,3.249,0,4.867v5.453c0,1.165.42,2.128,1.747,2.225,1.219.089,2.479,0,3.7,0H77.434a1.192,1.192,0,0,0,0-2.382" transform="translate(0 -105.774)" fill="#2189b9"/>
    <path id="Path_389" data-name="Path 389" d="M31.985,122.855H13.4c-.057,0-.345-.042-.39,0-.015.015-.069-.014-.085,0-.093.076.715.546.64.63.033-.038-.022-.157,0-.2a3.872,3.872,0,0,0,0-1.195v-1.509c0-.078.045-.424,0-.474-.1-.108-.39.22-.369.26.012.023.242-.008.27,0a6.609,6.609,0,0,0,1.513,0H29.617a8.6,8.6,0,0,0,1.785,0c.033-.008.289.026.3,0-.01.02-.344-.372-.369-.36s.013.176,0,.2a1.81,1.81,0,0,0,0,.557v1.76a4.627,4.627,0,0,0,0,.627c.1.678-.31-.079.333-.252a1.192,1.192,0,0,0,.633,2.3c1.362-.368,1.415-1.5,1.415-2.671a24.431,24.431,0,0,0-.021-2.7c-.229-2.037-2.2-1.844-3.7-1.844H16.778c-1.182,0-2.4-.086-3.58,0-2.57.187-2.1,3.531-2.012,5.36.093,1.874,1.584,1.9,2.995,1.9h17.8a1.192,1.192,0,0,0,0-2.382" transform="translate(-8.451 -89.85)" fill="#2189b9"/>
    <path id="Path_390" data-name="Path 390" d="M175.975,120.895h-34.9a1.63,1.63,0,0,0-.518,0c-.012.006-.034-.007-.045,0h-.01q-.5,0,.706.69c.108-.162,0-.712,0-.914,0-1.064-.364-2.652,1.065-2.808a16.807,16.807,0,0,1,1.787,0h28.465a13.725,13.725,0,0,1,1.76,0c.885.118.974.74.974,1.48v1.328a3.545,3.545,0,0,0,0,.586c.124.691-.42-.1.4-.319a1.192,1.192,0,0,0,.633,2.3c1.8-.487,1.415-2.94,1.351-4.394a3.425,3.425,0,0,0-3.447-3.36c-2.05-.07-4.114,0-6.164,0H146.284c-1.611,0-3.955-.391-5.484.3-2.2,1-1.972,3.29-1.972,5.3,0,1.276.573,2.148,1.916,2.194,5.736.2,11.515,0,17.254,0,5.879,0,11.78.149,17.657,0,.106,0,.213,0,.32,0a1.192,1.192,0,0,0,0-2.382" transform="translate(-105.756 -87.89)" fill="#2189b9"/>
    <path id="Path_391" data-name="Path 391" d="M102.24,190.681l-18.4,7.7L54.646,210.6l-6.711,2.808c-1.393.583-.782,2.889.633,2.3l18.4-7.7,29.192-12.216,6.711-2.808c1.393-.583.782-2.889-.633-2.3" transform="translate(-35.918 -145.189)" fill="#2189b9"/>
    <path id="Path_392" data-name="Path 392" d="M47.936,192.979l18.4,7.7,29.192,12.216,6.711,2.808c1.412.591,2.029-1.713.633-2.3l-18.4-7.7L55.279,193.49l-6.711-2.808c-1.412-.591-2.028,1.713-.633,2.3" transform="translate(-35.918 -145.19)" fill="#2189b9"/>
    <path id="Path_393" data-name="Path 393" d="M32.342,285.677a1.245,1.245,0,0,1-2.488,0,1.245,1.245,0,0,1,2.488,0c.082,1.525,2.465,1.534,2.382,0a3.626,3.626,0,1,0-3.758,3.619,3.691,3.691,0,0,0,3.758-3.619c.082-1.532-2.3-1.527-2.382,0" transform="translate(-20.929 -214.869)" fill="#2189b9"/>
    <path id="Path_394" data-name="Path 394" d="M281.076,285.677a1.245,1.245,0,0,1-2.488,0,1.245,1.245,0,0,1,2.488,0c.082,1.525,2.465,1.534,2.382,0A3.626,3.626,0,1,0,279.7,289.3a3.691,3.691,0,0,0,3.758-3.619c.082-1.532-2.3-1.527-2.382,0" transform="translate(-210.417 -214.869)" fill="#2189b9"/>
    <path id="Path_395" data-name="Path 395" d="M30.576,28.781V1.191L29.385,2.382h9.4L37.6,1.191v4.96a1.192,1.192,0,0,0,2.382,0V1.191A1.208,1.208,0,0,0,38.789,0h-9.4a1.208,1.208,0,0,0-1.191,1.191v27.59a1.192,1.192,0,0,0,2.382,0" transform="translate(-21.478)" fill="#2189b9"/>
    <path id="Path_396" data-name="Path 396" d="M61.577,29.678h-6.17L56.6,30.869V22.392l-1.191,1.191h6.17l-1.191-1.191v8.477a1.192,1.192,0,0,0,2.382,0V22.392A1.208,1.208,0,0,0,61.577,21.2h-6.17a1.208,1.208,0,0,0-1.191,1.191v8.477a1.208,1.208,0,0,0,1.191,1.191h6.17a1.192,1.192,0,0,0,0-2.382" transform="translate(-41.302 -16.151)" fill="#2189b9"/>
  </g>
</svg>
