<svg xmlns="http://www.w3.org/2000/svg" width="40.183" height="40.188" viewBox="0 0 40.183 40.188">
  <path id="Path_2168" data-name="Path 2168" d="M527.694,40.3a20.094,20.094,0,1,1,20.031-20.021A20.087,20.087,0,0,1,527.694,40.3m4.4-29.747a33.539,33.539,0,0,0-3.575.022c-2.347.258-3.33,1.445-3.351,3.833-.007.8,0,1.6,0,2.5h-1.9v3.259l1.929.129v9.529h3.987V20.308c.972-.157,2.179-.008,2.557-.5.476-.617.275-1.756.358-2.671.005-.056-.055-.118-.151-.312h-2.79c0-.666.029-1.2-.006-1.725-.061-.9.382-1.207,1.216-1.164.556.029,1.114.005,1.73.005Z" transform="translate(-507.542 -0.112)" fill="#005093"/>
</svg>
