<svg id="Group_491" data-name="Group 491" xmlns="http://www.w3.org/2000/svg" xmlns:xlink="http://www.w3.org/1999/xlink" width="104.464" height="69.729" viewBox="0 0 104.464 69.729">
  <defs>
    <clipPath id="clip-path">
      <rect id="Rectangle_290" data-name="Rectangle 290" width="104.464" height="69.729" fill="#2189b9"/>
    </clipPath>
  </defs>
  <g id="Group_490" data-name="Group 490" clip-path="url(#clip-path)">
    <path id="Path_364" data-name="Path 364" d="M260.431,196.45a6.726,6.726,0,0,1-13.452,0c0-.012,0-.023,0-.035a6.725,6.725,0,0,1,13.451,0C260.431,196.427,260.431,196.438,260.431,196.45Z" transform="translate(-175.586 -134.882)" fill="#2189b9" stroke="#a8c8e9" stroke-miterlimit="10" stroke-width="1"/>
    <path id="Path_365" data-name="Path 365" d="M255.566,192.934a5.28,5.28,0,1,1-5.281-5.281,5.34,5.34,0,0,1,5.281,5.281c.036,1.858,2.926,1.864,2.891,0a8.171,8.171,0,0,0-14.43-5.243c-4.755,5.714.28,14.5,7.619,13.29a8.272,8.272,0,0,0,6.811-8.047c.054-1.861-2.837-1.859-2.891,0" transform="translate(-172.166 -131.366)" fill="#2189b9"/>
    <path id="Path_366" data-name="Path 366" d="M76.836,196.45a6.726,6.726,0,0,1-13.452,0c0-.012,0-.023,0-.035a6.725,6.725,0,0,1,13.451,0C76.836,196.427,76.836,196.438,76.836,196.45Z" transform="translate(-45.062 -134.882)" fill="#2189b9" stroke="#a8c8e9" stroke-miterlimit="10" stroke-width="1"/>
    <path id="Path_367" data-name="Path 367" d="M71.971,192.934a5.28,5.28,0,1,1-5.281-5.281,5.34,5.34,0,0,1,5.281,5.281c.037,1.858,2.928,1.864,2.891,0a8.171,8.171,0,0,0-14.43-5.243c-4.755,5.714.28,14.5,7.619,13.29a8.272,8.272,0,0,0,6.812-8.047c.054-1.861-2.837-1.859-2.891,0" transform="translate(-41.642 -131.366)" fill="#2189b9"/>
    <path id="Path_368" data-name="Path 368" d="M102.109,69.989c-4.693-4.74-7.449-10.644-10.381-16.543a107.782,107.782,0,0,0-6.24-11.4c-1.048-1.59-4.313-.973-6.045-.979q-16.5-.053-33.009-.017-16.336.013-32.671.045L5.17,41.11a4.67,4.67,0,0,0-2.236.317c-1.874.961-1.687,3.535-1.868,5.319Q.694,50.414.453,54.094A202.808,202.808,0,0,0,.269,78.039,101.313,101.313,0,0,0,1.347,89.907c.031.176.05.355.078.532A1.451,1.451,0,0,0,2.819,91.5H12.933a1.469,1.469,0,0,0,1.445-1.445c.115-5.607,5.161-10.026,10.664-10.034,5.488-.008,10.57,4.438,10.664,10.034A1.468,1.468,0,0,0,37.152,91.5H66a1.469,1.469,0,0,0,1.445-1.445c.113-5.607,5.162-10.026,10.664-10.034s10.57,4.438,10.664,10.034A1.468,1.468,0,0,0,90.223,91.5h10.919a1.483,1.483,0,0,0,1.394-1.061A41.253,41.253,0,0,0,104.19,82.7c.515-4.122.514-8.827-1.854-12.423-1.019-1.547-3.523-.1-2.5,1.459,2.13,3.235,1.938,7.566,1.421,11.249a38.877,38.877,0,0,1-1.512,6.682l1.394-1.061H90.223l1.445,1.445c-.12-7.168-6.482-12.925-13.555-12.925-7.091,0-13.411,5.757-13.555,12.925L66,88.61H37.152L38.6,90.055c-.12-7.168-6.482-12.925-13.555-12.925-7.093,0-13.408,5.757-13.555,12.925l1.445-1.445H2.819l1.394,1.061a1.557,1.557,0,0,1-.053-.354c.007-.067-.074-.532-.042-.294.023.169-.061-.476-.079-.619-.175-1.4-.319-2.8-.445-4.209-.46-5.128-.672-10.28-.7-15.428a208.645,208.645,0,0,1,1.06-22.021c.057-.565.109-1.131.179-1.694.008-.065.306-1.24.039-1.049.014-.01.048.008.063,0a1.475,1.475,0,0,1,.5,0c.705.02,1.415,0,2.121,0q25.1-.052,50.19-.064c9.014,0,18.028-.01,27.041.043l-1.248-.716c3.292,5.377,6.016,11.017,8.862,16.633a47.158,47.158,0,0,0,8.359,12.139,1.446,1.446,0,0,0,2.044-2.044" transform="translate(0 -29.114)" fill="#2189b9"/>
    <path id="Path_369" data-name="Path 369" d="M110.236,80.492v6.672l1.445-1.445h-7.11a1.466,1.466,0,0,0-1.445,1.445v7.111l1.445-1.445H97.9l1.445,1.445V87.163A1.466,1.466,0,0,0,97.9,85.718h-7.11l1.445,1.445V80.492l-1.445,1.445H97.9a1.466,1.466,0,0,0,1.445-1.445v-7.11L97.9,74.827h6.672l-1.445-1.445v7.11a1.466,1.466,0,0,0,1.445,1.445h7.11a1.446,1.446,0,0,0,0-2.891h-7.11l1.445,1.445v-7.11a1.466,1.466,0,0,0-1.445-1.445H97.9a1.466,1.466,0,0,0-1.445,1.445v7.11L97.9,79.046h-7.11a1.466,1.466,0,0,0-1.445,1.445v6.672a1.466,1.466,0,0,0,1.445,1.445H97.9l-1.445-1.445v7.111A1.466,1.466,0,0,0,97.9,95.719h6.672a1.466,1.466,0,0,0,1.445-1.445V87.163l-1.445,1.445h7.11a1.466,1.466,0,0,0,1.445-1.445V80.492a1.446,1.446,0,0,0-2.891,0" transform="translate(-63.517 -51.142)" fill="#2189b9"/>
    <path id="Path_370" data-name="Path 370" d="M231.934,1.4V4.358a1.446,1.446,0,0,0,2.891,0V1.4a1.446,1.446,0,0,0-2.891,0" transform="translate(-164.89 0)" fill="#2189b9"/>
    <path id="Path_371" data-name="Path 371" d="M227.574,28.2h-7.426l1.445,1.445c0-.714-.068-1.463,0-2.174.128-1.351,1.065-1.694,2.267-1.694,1.175,0,2.14.329,2.268,1.673.069.719,0,1.473,0,2.2a1.446,1.446,0,0,0,2.891,0,9.829,9.829,0,0,0-.406-4.066,5.565,5.565,0,0,0-9.428-.168c-.653,1.3-.483,2.825-.483,4.234a1.466,1.466,0,0,0,1.445,1.445h7.426a1.446,1.446,0,0,0,0-2.891" transform="translate(-155.47 -16.268)" fill="#2189b9"/>
    <path id="Path_372" data-name="Path 372" d="M203.438,12.081l1.752,2.154a1.45,1.45,0,0,0,2.044,0,1.487,1.487,0,0,0,0-2.044l-1.752-2.154a1.45,1.45,0,0,0-2.044,0,1.487,1.487,0,0,0,0,2.044" transform="translate(-144.342 -6.835)" fill="#2189b9"/>
    <path id="Path_373" data-name="Path 373" d="M256.362,10.045,254.61,12.2a1.48,1.48,0,0,0,0,2.044,1.462,1.462,0,0,0,2.044,0l1.752-2.154a1.48,1.48,0,0,0,0-2.044,1.461,1.461,0,0,0-2.044,0" transform="translate(-180.719 -6.844)" fill="#2189b9"/>
    <path id="Path_374" data-name="Path 374" d="M224.9,67.171c4.405,0,8.81,0,13.215.03l-1.248-.716a80.937,80.937,0,0,1,5.326,9.656,76.938,76.938,0,0,0,3.79,7.492l1.248-2.175c-3.4,0-6.8.111-10.2.2a38.768,38.768,0,0,1-6.28-.127,8.916,8.916,0,0,1-1.82-.484c-.186-.093-.651-.386-.655-.389.067.053-.571-.615-.406-.4a8.489,8.489,0,0,1-1.26-4.286c-.339-3.4-.267-6.837-.267-10.244a1.446,1.446,0,0,0-2.891,0c0,3.3-.058,6.619.235,9.906a13.264,13.264,0,0,0,1.434,5.7c2.083,3.45,6.658,3.293,10.188,3.246,3.974-.053,7.944-.227,11.918-.231a1.458,1.458,0,0,0,1.248-2.175c-2.874-4.65-4.712-9.874-7.508-14.582-.674-1.135-1.4-3.1-2.856-3.281a29.54,29.54,0,0,0-3.52-.015q-4.848-.015-9.7-.015a1.446,1.446,0,0,0,0,2.891" transform="translate(-158.86 -45.673)" fill="#2189b9"/>
  </g>
</svg>
