<svg xmlns="http://www.w3.org/2000/svg" xmlns:xlink="http://www.w3.org/1999/xlink" width="191.471" height="22.533" viewBox="0 0 191.471 22.533">
  <defs>
    <clipPath id="clip-path">
      <rect id="Rectangle_545" data-name="Rectangle 545" width="191.471" height="22.533" fill="#0061a2"/>
    </clipPath>
  </defs>
  <g id="Group_858" data-name="Group 858" transform="translate(0 0)">
    <g id="Group_840" data-name="Group 840" transform="translate(0 0)" clip-path="url(#clip-path)">
      <path id="Path_2070" data-name="Path 2070" d="M0,18.7c0-.249.012-.5,0-.748-.018-.307.173-.384.426-.486,1.89-.762,3.618-1.861,5.531-2.578.346-.787,1.283-.1,1.754-.693.411-.52,1.4.134,1.727-.71.691.122,1.066-.721,1.836-.537.3.071.71-.275,1.05-.465a2.262,2.262,0,0,1,1.576-.5c.759.143,1.255-.849,2.08-.492.372-.77,1.34-.212,1.731-.679.472-.565,1.22-.011,1.576-.514.448-.634,1.307.022,1.789-.672.284-.41,1.187.139,1.523-.555a4.64,4.64,0,0,0,1.236-.092A4.215,4.215,0,0,1,26.18,8.5c.565-.683,1.355-.463,2.081-.5.457-.7,1.183-.529,1.825-.478.407.032.69-.943,1.15-.119.34-.134.805-.173,1-.418.488-.625,1.319-.249,1.769-.645a1.814,1.814,0,0,1,1.649-.3c.745.119,1.13-.616,1.833-.546a18.269,18.269,0,0,0,2.027-.005,1.168,1.168,0,0,1,1.324-.467c.568.1.911-.256,1.327-.5a.558.558,0,0,1,.461.078c.235.153.394.568.728.12a.478.478,0,0,1,.18-.173c.608-.222,1.3.233,1.9-.339.535-.507,1.3-.073,1.944-.2s1.415.3,1.945-.192c.608-.571,1.295-.131,1.908-.333.241-.08.313-.686.717-.238.492.544.58-.312.955-.247a1.951,1.951,0,0,0,1.009-.008,4.72,4.72,0,0,1,2.347-.5c.84.085,1.7.006,2.545.025a1.3,1.3,0,0,0,.9-.311c.387-.3.473-.3.841,0a1.809,1.809,0,0,0,.893.326c.657.131.878-.739,1.583-.544a1.18,1.18,0,0,0,1.368-.371.692.692,0,0,1,.646,0,1.39,1.39,0,0,0,1.622.355A5.871,5.871,0,0,1,68.747,1.5a16.74,16.74,0,0,0,2.036.007.627.627,0,0,0,.436-.151c.272-.36.421-.233.753-.017.294.191.95.282,1.141.1a1.747,1.747,0,0,1,1.367-.432c1.019.014,2.038.02,3.056,0a1.339,1.339,0,0,1,1.118.407.69.69,0,0,0,.646-.01c.3-.475.891-.329,1.273-.669a1.062,1.062,0,0,1,1.553.1c.145.138.6.226.652.155C83.2.41,83.8.519,84.378.519,85.737.52,87.1.6,88.451.5c1.207-.089,2.518.478,3.622-.464A.481.481,0,0,1,92.531.1a1.265,1.265,0,0,0,1.1.429C94.823.5,96.012.51,97.2.525c.4.005.82-.12,1.165.263.461.511.529-.4.966-.29A7.165,7.165,0,0,0,100.6.526,1.08,1.08,0,0,0,101.492.2a.732.732,0,0,1,.658-.138c.155.083.163.411.262.619s.195.42.485.129a1.011,1.011,0,0,1,.635-.278c2.037-.021,4.076,0,6.113-.021A2.765,2.765,0,0,1,110.758.9a2.085,2.085,0,0,0,1.881-.142c.666-.394.719-.371,1.538.088.19.106.215.182.38.02a.953.953,0,0,1,.61-.327c.956.11,2.03-.4,2.847.479,1.273,0,2.55-.05,3.819.02.711.039,1.536-.37,2.138.369.021.026.235-.08.347-.144a3.474,3.474,0,0,1,2.4-.138c.328.548.878.382,1.362.388,1.019.014,2.037,0,3.057,0a1.969,1.969,0,0,1,1.61.454c.275.272,1-.167,1.348.384a.679.679,0,0,0,.177.138c.459-.718,1.2-.437,1.836-.471.592-.032,1.19.02,1.782-.017a1.2,1.2,0,0,1,.858.4.608.608,0,0,0,.867-.143.425.425,0,0,1,.348-.125c.216.09.4.349.606.357.932.041,1.867.018,2.8.018.641.781,1.538.449,2.336.488.932.046,1.868.011,2.8.011h2.548c.623.866,1.551.36,2.335.5a1.729,1.729,0,0,1,.426.194q.705.355,1.41.713c.322-.541.873-.342,1.35-.429.774-.142,1.089-.146,1.285.191.145.251.245.527.365.792a4.394,4.394,0,0,1,.57-.462c.2-.115.486-.113.648-.255.227-.2.371-.221.552.014a1.591,1.591,0,0,0,1.727.733c.369.511.738.48,1.106,0,.634.088,1.328-.252,1.9.364.166.178.623.1.947.134.556.062,1.159-.183,1.635.393.143.174.629.063.954.109.712.1,1.533-.294,2.1.443.756.017,1.514.014,2.268.067.2.014.561.2.559.306-.005.547.229.7.759.686.933-.032,1.868,0,2.8-.016.3-.007.532.12.528.369-.012.586.321.76.785.619.687-.208.875.767,1.583.532a1.621,1.621,0,0,1,1.574.471c.167.141.545.11.634.264.4.7,1.289.675,1.8,1.215.38.4.441.482.264,1.479a.411.411,0,0,0,.36.53c.491.047,1.016-.087,1.349.435a1.443,1.443,0,0,0,1.539.576.94.94,0,0,1,.9.3c.331.376.741.688,1.066,1.069A1.685,1.685,0,0,0,190.66,16c.182-.014.392.256.58.407.335.267.3.356-.059.711a1.035,1.035,0,0,1-.875.365c-.262-.019-1.638-.179-1.775-.233-1.019-.4-1.865-1.174-3.025-1.293-.367-.038-.695-.382-1.069-.459a4.063,4.063,0,0,1-1.147-.322,18.368,18.368,0,0,0-2.006-.661,10.438,10.438,0,0,1-1.107-.4,3.635,3.635,0,0,0-2.281-.642c-.57.1-.887-.677-1.575-.506a9.061,9.061,0,0,1-1.522.03c-.535.036-.724-.732-1.318-.506-1.981-.977-1.984-1.024-3.144-.978a3.14,3.14,0,0,1-1.583-.5,3.462,3.462,0,0,0-2.074-.538,2.1,2.1,0,0,1-1.438-.14,1.925,1.925,0,0,0-1.4-.334c-.509-.02-1.115.164-1.5-.049-.443-.243-.82-.6-1.339-.441-.683.206-1.012-.543-1.575-.5s-.914-.414-1.325-.462a8.3,8.3,0,0,1-1.578-.514A6.176,6.176,0,0,0,154.749,8a4.674,4.674,0,0,1-1.767-.035c-1.685-.766-3.436-.363-5.155-.451-.407-.02-.547-.345-.83-.459-.1-.039-.347.282-.527.438-.535-1.019-1.828,0-2.449-.868-.1-.134-.458-.113-.7-.116-.849-.013-1.706.066-2.545-.021-1.375-.143-2.841.483-4.134-.466-.163-.12-.5-.007-.751-.019-.581-.026-1.161-.063-1.742-.1-.459-.823-.75.236-1.148.1a4.386,4.386,0,0,1-.44-.162.471.471,0,0,1-.18-.174c-.128-.206-.229-.193-.365.025-.379.606-.605-.21-.892-.1-.244.092-.384.588-.726.131-.25-.335-.411-.06-.532.1-.156.2-.216.2-.38.031-.117-.119-.225-.518-.532-.155a.649.649,0,0,1-1.056.094.953.953,0,0,0-.637-.264c-.38.049-.723.767-1.125.018-.588-.013-1.177-.03-1.767-.037-.509-.007-1.019.009-1.528-.008a.651.651,0,0,1-.44-.139c-.261-.321-.465-.387-.743-.017a.492.492,0,0,1-.428.149c-.367-.128-.713-.448-1.067-.448s-.706.435-1.063.441c-2.971.038-5.943.014-8.914.032a1.1,1.1,0,0,1-.835-.444c-.715.484-1.425.8-2.1-.06-.764,0-1.529-.028-2.29.011-.211.011-.407.225-.62.328a2.713,2.713,0,0,1-.444.153c-.392.114-.692-.907-1.144-.089-.5.03-.993.078-1.49.087-.848.014-1.7,0-2.547,0q-4.458,0-8.915,0a1.549,1.549,0,0,0-1.366.419c-.219.249-.585.048-.858-.2-.159-.141-.59-.267-.641-.2-.582.729-1.384.451-2.1.474a17.674,17.674,0,0,1-3.051-.029c-.7-.1-.867.742-1.586.568a8.875,8.875,0,0,0-2.03-.032H76.384A16.969,16.969,0,0,1,74.6,6.49c-.7-.074-1.025.8-1.841.551a1.415,1.415,0,0,0-1.625.348c-.143.175-.625.1-.953.107-1.019.011-2.04-.032-3.056.015-.881.041-1.613.685-2.6.52a10.264,10.264,0,0,0-2.793,0,3,3,0,0,0-1.493.641c-.5.409-.845.479-1.248-.029-.13-.163-.2-.108-.374.054a1.081,1.081,0,0,1-.631.288c-.762.035-1.54-.068-2.288.036-.784.11-1.459.635-2.343.5a21.29,21.29,0,0,0-2.288-.031c-.6-.026-.885.69-1.579.532a2.94,2.94,0,0,0-1.753.022,2.659,2.659,0,0,1-1.6.45c-.459.691-1.183.434-1.826.51s-1.409-.319-1.945.189c-.6.571-1.3.117-1.905.335-.53.907-1.591.127-2.258.694a2.6,2.6,0,0,1-2.169.224c-.7-.1-.946.619-1.58.563-.463-.041-1.013-.22-1.406.275a.756.756,0,0,1-.42.2c-.711.144-1.475-.254-2.164.321-.558.465-1.312.032-1.951.2-.373.1-.708.45-1.066.46-.905.025-1.6.842-2.6.551-.354-.1-.625.393-1.036.526-.525.17-.971.55-1.591.447-.762-.128-1.252.868-2.08.5-.3.555-1.019.43-1.431.853-.4.406-1.106-.083-1.586.511-.295.366-.993.4-1.485.638s-.97.523-1.442.806c-.405.243-.965.216-1.24.683-.642-.139-.839.442-1.223.723-.128.095-.305.289-.387.258-.76-.3-1.273.316-1.806.568a4.192,4.192,0,0,0-1.665.921c-.21.253-.7-.034-.755-.363a1.983,1.983,0,0,1,.825-2.158c.21-.142.246-.256.035-.35a.869.869,0,0,0-.466-.089c-.394.068-.558.613-1.065.493-.466-.11-.763.161-1.092.443-.147.126-.485.026-.733.056a.436.436,0,0,1-.545-.355c-.064-.483-.041-.978-.1-1.462-.009-.076-.267-.131-.416-.176-.077-.024-.226-.035-.245,0-.265.492-.923.36-1.225.711-.41.476-.944.176-1.4.333-.692.24-.7.223-.7-.322,0-.166,0-.333,0-.5m179.8-7.416c-.028-.054-.044-.147-.083-.158-.216-.056-.44-.08-.655-.137-.241-.065-.323.005-.234.233a.338.338,0,0,0,.153.167c.349.17.762.111-.157-.4a.383.383,0,0,0-.36-.486c-.557-.039-1.118-.013-2.947-.013a8.3,8.3,0,0,1,1.014.011c.26.032.369-.026.243-.252a.575.575,0,0,0-.39-.245,7.49,7.49,0,0,1-1.01-.029,7.227,7.227,0,0,1-1.064-.477.42.42,0,0,0-.251,0,.464.464,0,0,0-.2.123.319.319,0,0,0-.074.166c.334.221.456.721.97.7.254-.008.508,0,2.03,0a.383.383,0,0,0,.361.486,15.763,15.763,0,0,1,2.653.3M47.895,6.5a12.851,12.851,0,0,1-2.218-.027c-.8-.142-1.328.437-2.017.522-.4.049-.8.038-1.2.106-.079.014-.116.258-.173.4a10.208,10.208,0,0,0-2.012.03c-.6.125-1.09.578-1.817.5-.7-.075-1.523-.3-2.057.468l-1.51.008c-.374.607-.983.495-1.559.492-.165,0-.43-.046-.479.032-.386.61-1.019.417-1.563.508-.461.718-1.273.234-1.806.5a4.744,4.744,0,0,1-1.795.543c-.063,0-.141.1-.17.17a.666.666,0,0,0-.007.245A6.557,6.557,0,0,1,26,10.969c-.686-.169-1.009.492-1.573.517-.507.022-1.016-.009-1.524.008-.49.017-.715.629-1.318.52-.38-.069-1.428.65-2.175.971a4.246,4.246,0,0,0-.742.014c-.107.02-.193.176-.271.283-.008.011.1.149.163.154a5.568,5.568,0,0,0,.948.036c.128-.011.334-.148.351-.252.079-.476-.327-.117.015-.234.508,0,1.016-.011,1.523,0s.706-.663,1.316-.516a3.421,3.421,0,0,0,2.725-.729,1.576,1.576,0,0,1,.913-.258,5.071,5.071,0,0,0,.98-.089c.088-.02.124-.265.183-.406h1.767a1.336,1.336,0,0,1,1.55-.479c.609.135.778-.556,1.308-.527.585.032,1.173,0,1.76-.014.061,0,.131-.1.176-.169.352-.525,1.064-.076,1.339-.369a1.68,1.68,0,0,1,1.6-.418c.631.068.865-.718,1.564-.544a2.858,2.858,0,0,0,1.737-.017,5.041,5.041,0,0,1,1.8-.538c.063,0,.141-.1.171-.17A.683.683,0,0,0,42.29,7.5c1.174-.105,2.429.338,3.494-.5.647-.028,1.295-.044,1.939-.1a4.877,4.877,0,0,1,1.792-.857V6c-.413,0-.827-.02-1.237.012a.549.549,0,0,0-.373.25c-.121.222-.013.257.237.248.825-.029,1.651,0,2.475-.024.1,0,.2-.176.285-.282.006-.007-.107-.155-.167-.157a10.531,10.531,0,0,0-2.841.452M53.231,6a1.506,1.506,0,0,0,.492-.014c.1-.035.157-.2.2-.316.012-.035-.1-.158-.166-.161a6.338,6.338,0,0,0-.992.008c-.078.008-.153.2-.191.315-.012.036.1.152.166.161a3.4,3.4,0,0,0,.5.008m2.132-.578.173-.17c-.058-.057-.106-.143-.176-.164a.983.983,0,0,0-.454-.073,1.3,1.3,0,0,0-.389.237,1.335,1.335,0,0,0,.389.237,1.341,1.341,0,0,0,.456-.068m116.253,3.74a.565.565,0,0,0-.842-.01.184.184,0,0,0-.011.166.558.558,0,0,0,.838.011c.029-.038.012-.111.015-.167M51.789,5.932l.181-.177a1.586,1.586,0,0,0-.342-.156c-.041-.009-.11.1-.167.156l.328.177M15.616,14.409l.181-.177a1.6,1.6,0,0,0-.341-.156c-.042-.009-.111.1-.168.156l.328.177M14.2,14.8l-.181-.321c-.057.056-.169.123-.16.164a1.555,1.555,0,0,0,.16.335L14.2,14.8" transform="translate(0 0)" fill="#0061a2"/>
    </g>
  </g>
</svg>
