<svg xmlns="http://www.w3.org/2000/svg" xmlns:xlink="http://www.w3.org/1999/xlink" width="189.666" height="25.834" viewBox="0 0 189.666 25.834">
  <defs>
    <clipPath id="clip-path">
      <rect id="Rectangle_545" data-name="Rectangle 545" width="189.302" height="22.533" fill="#35bda4"/>
    </clipPath>
  </defs>
  <g id="Group_548" data-name="Group 548" transform="matrix(1, -0.017, 0.017, 1, 0, 3.304)">
    <g id="Group_840" data-name="Group 840" transform="translate(0 0)" clip-path="url(#clip-path)">
      <path id="Path_2070" data-name="Path 2070" d="M0,18.7c0-.249.011-.5,0-.748-.017-.307.171-.384.421-.486C2.29,16.7,4,15.6,5.89,14.887c.342-.787,1.268-.1,1.734-.693.407-.52,1.386.134,1.707-.71.683.122,1.054-.721,1.816-.537.292.071.7-.275,1.038-.465a2.219,2.219,0,0,1,1.559-.5c.75.143,1.241-.849,2.056-.492.368-.77,1.325-.212,1.711-.679.466-.565,1.207-.011,1.559-.514.443-.634,1.292.022,1.769-.672.281-.41,1.173.139,1.506-.555a4.537,4.537,0,0,0,1.222-.092,4.128,4.128,0,0,1,2.317-.48c.558-.683,1.339-.463,2.058-.5.452-.7,1.169-.529,1.8-.478.4.032.683-.943,1.137-.119.336-.134.8-.173.984-.418.482-.625,1.3-.249,1.749-.645a1.777,1.777,0,0,1,1.631-.3c.736.119,1.117-.616,1.813-.546a17.858,17.858,0,0,0,2-.005,1.148,1.148,0,0,1,1.309-.467c.562.1.9-.256,1.312-.5a.547.547,0,0,1,.456.078c.233.153.389.568.72.12a.475.475,0,0,1,.178-.173c.6-.222,1.287.233,1.883-.339.529-.507,1.281-.073,1.922-.2s1.4.3,1.923-.192c.6-.571,1.28-.131,1.886-.333.238-.08.309-.686.709-.238.486.544.573-.312.944-.247a1.908,1.908,0,0,0,1-.008,4.622,4.622,0,0,1,2.32-.5c.83.085,1.677.006,2.516.025a1.274,1.274,0,0,0,.887-.311c.382-.3.468-.3.831,0a1.776,1.776,0,0,0,.883.326c.65.131.868-.739,1.565-.544a1.158,1.158,0,0,0,1.353-.371.678.678,0,0,1,.639,0,1.363,1.363,0,0,0,1.6.355A5.75,5.75,0,0,1,67.968,1.5a16.364,16.364,0,0,0,2.013.007.615.615,0,0,0,.431-.151c.269-.36.416-.233.745-.017.29.191.939.282,1.129.1a1.715,1.715,0,0,1,1.351-.432c1.007.014,2.015.02,3.021,0a1.316,1.316,0,0,1,1.1.407.675.675,0,0,0,.639-.01c.3-.475.881-.329,1.259-.669a1.042,1.042,0,0,1,1.535.1c.143.138.594.226.645.155C82.257.41,82.85.519,83.422.519,84.765.52,86.114.6,87.449.5c1.194-.089,2.489.478,3.581-.464A.472.472,0,0,1,91.483.1a1.244,1.244,0,0,0,1.091.429C93.749.5,94.924.51,96.1.525c.4.005.811-.12,1.152.263.456.511.523-.4.955-.29a7,7,0,0,0,1.253.029A1.061,1.061,0,0,0,100.342.2a.718.718,0,0,1,.651-.138c.153.083.161.411.259.619s.193.42.479.129a.994.994,0,0,1,.628-.278c2.014-.021,4.029,0,6.044-.021A2.713,2.713,0,0,1,109.5.9a2.041,2.041,0,0,0,1.86-.142c.658-.394.711-.371,1.521.088.188.106.212.182.376.02a.939.939,0,0,1,.6-.327c.945.11,2.007-.4,2.815.479,1.259,0,2.521-.05,3.776.02.7.039,1.518-.37,2.114.369.021.026.232-.08.343-.144a3.4,3.4,0,0,1,2.372-.138c.325.548.868.382,1.347.388,1.007.014,2.014,0,3.022,0a1.931,1.931,0,0,1,1.592.454c.272.272.988-.167,1.333.384.037.059.116.093.175.138.454-.718,1.182-.437,1.815-.471.585-.032,1.176.02,1.762-.017a1.181,1.181,0,0,1,.849.4c.292.23.6.128.857-.143a.417.417,0,0,1,.344-.125c.214.09.4.349.6.357.921.041,1.846.018,2.77.018.634.781,1.521.449,2.309.488.921.046,1.847.011,2.77.011h2.519c.616.866,1.533.36,2.309.5a1.7,1.7,0,0,1,.421.194q.7.355,1.394.713c.319-.541.863-.342,1.335-.429.765-.142,1.077-.146,1.27.191.143.251.242.527.361.792A4.355,4.355,0,0,1,157,4.516c.2-.115.481-.113.641-.255.224-.2.366-.221.546.014a1.565,1.565,0,0,0,1.708.733c.365.511.73.48,1.094,0,.626.088,1.313-.252,1.877.364.164.178.616.1.937.134.55.062,1.146-.183,1.617.393.142.174.622.063.943.109.7.1,1.516-.294,2.081.443.748.017,1.5.014,2.243.067.2.014.554.2.553.306-.005.547.227.7.751.686.922-.032,1.847,0,2.77-.016.3-.007.526.12.522.369-.012.586.318.76.776.619.68-.208.865.767,1.565.532a1.591,1.591,0,0,1,1.556.471c.165.141.538.11.626.264.4.7,1.274.675,1.779,1.215.376.4.436.482.261,1.479a.411.411,0,0,0,.356.53c.485.047,1-.087,1.334.435a1.418,1.418,0,0,0,1.521.576.923.923,0,0,1,.885.3c.328.376.733.688,1.054,1.069A1.658,1.658,0,0,0,188.5,16c.18-.014.388.256.573.407.331.267.293.356-.058.711a1.018,1.018,0,0,1-.865.365c-.259-.019-1.619-.179-1.755-.233-1.007-.4-1.844-1.174-2.991-1.293-.363-.038-.687-.382-1.056-.459a3.982,3.982,0,0,1-1.134-.322,18.013,18.013,0,0,0-1.983-.661,10.246,10.246,0,0,1-1.094-.4,3.564,3.564,0,0,0-2.255-.642c-.563.1-.877-.677-1.557-.506a8.857,8.857,0,0,1-1.5.03c-.529.036-.716-.732-1.3-.506-1.959-.977-1.961-1.024-3.108-.978a3.08,3.08,0,0,1-1.565-.5,3.393,3.393,0,0,0-2.051-.538,2.051,2.051,0,0,1-1.422-.14A1.886,1.886,0,0,0,161.982,10c-.5-.02-1.1.164-1.486-.049-.438-.243-.811-.6-1.323-.441-.675.206-1-.543-1.557-.5s-.9-.414-1.31-.462a8.14,8.14,0,0,1-1.56-.514A6.037,6.037,0,0,0,153,8a4.57,4.57,0,0,1-1.747-.035c-1.666-.766-3.4-.363-5.1-.451-.4-.02-.541-.345-.821-.459-.1-.039-.343.282-.521.438-.529-1.019-1.807,0-2.422-.868-.095-.134-.453-.113-.69-.116-.84-.013-1.687.066-2.516-.021-1.36-.143-2.808.483-4.087-.466-.161-.12-.491-.007-.742-.019-.574-.026-1.148-.063-1.722-.1-.454-.823-.742.236-1.135.1a4.306,4.306,0,0,1-.435-.162.468.468,0,0,1-.177-.174c-.127-.206-.227-.193-.361.025-.375.606-.6-.21-.882-.1-.241.092-.379.588-.717.131-.247-.335-.407-.06-.526.1-.154.2-.213.2-.376.031-.116-.119-.222-.518-.526-.155a.637.637,0,0,1-1.044.094.937.937,0,0,0-.629-.264c-.375.049-.715.767-1.113.018-.582-.013-1.164-.03-1.747-.037-.5-.007-1.007.009-1.511-.008a.639.639,0,0,1-.435-.139c-.258-.321-.46-.387-.734-.017a.483.483,0,0,1-.423.149c-.363-.128-.705-.448-1.055-.448s-.7.435-1.051.441c-2.937.038-5.875.014-8.813.032a1.079,1.079,0,0,1-.826-.444c-.707.484-1.409.8-2.076-.06-.755,0-1.511-.028-2.264.011-.209.011-.4.225-.613.328a2.662,2.662,0,0,1-.439.153c-.388.114-.684-.907-1.131-.089-.491.03-.982.078-1.474.087-.839.014-1.678,0-2.518,0q-4.407,0-8.814,0a1.52,1.52,0,0,0-1.351.419c-.216.249-.578.048-.849-.2-.157-.141-.583-.267-.634-.2-.576.729-1.368.451-2.081.474a17.277,17.277,0,0,1-3.016-.029c-.7-.1-.857.742-1.568.568A8.675,8.675,0,0,0,77.282,6.5H75.519a16.587,16.587,0,0,1-1.761-.013c-.692-.074-1.013.8-1.82.551a1.388,1.388,0,0,0-1.607.348c-.141.175-.618.1-.942.107-1.007.011-2.017-.032-3.021.015-.871.041-1.595.685-2.567.52a10.033,10.033,0,0,0-2.761,0,2.953,2.953,0,0,0-1.476.641c-.491.409-.835.479-1.234-.029-.129-.163-.2-.108-.369.054a1.063,1.063,0,0,1-.623.288c-.754.035-1.522-.068-2.262.036-.775.11-1.442.635-2.317.5a20.811,20.811,0,0,0-2.262-.031c-.6-.026-.875.69-1.561.532a2.875,2.875,0,0,0-1.733.022,2.607,2.607,0,0,1-1.577.45c-.454.691-1.169.434-1.8.51s-1.393-.319-1.923.189c-.6.571-1.281.117-1.884.335-.524.907-1.573.127-2.233.694a2.544,2.544,0,0,1-2.144.224c-.7-.1-.935.619-1.562.563-.458-.041-1-.22-1.39.275a.743.743,0,0,1-.415.2c-.7.144-1.458-.254-2.139.321-.552.465-1.3.032-1.929.2-.369.1-.7.45-1.054.46-.895.025-1.586.842-2.569.551-.35-.1-.618.393-1.025.526-.519.17-.96.55-1.573.447-.754-.128-1.238.868-2.057.5-.3.555-1.008.43-1.414.853-.391.406-1.094-.083-1.568.511-.291.366-.981.4-1.468.638s-.959.523-1.426.806c-.4.243-.954.216-1.226.683-.635-.139-.83.442-1.209.723-.127.095-.3.289-.382.258-.752-.3-1.259.316-1.786.568a4.131,4.131,0,0,0-1.646.921c-.208.253-.694-.034-.746-.363a1.994,1.994,0,0,1,.816-2.158c.208-.142.243-.256.034-.35a.851.851,0,0,0-.46-.089c-.39.068-.552.613-1.053.493-.46-.11-.755.161-1.08.443-.146.126-.479.026-.724.056a.432.432,0,0,1-.539-.355c-.063-.483-.041-.978-.1-1.462-.009-.076-.264-.131-.411-.176-.077-.024-.224-.035-.242,0-.262.492-.912.36-1.211.711-.406.476-.933.176-1.38.333-.684.24-.691.223-.695-.322,0-.166,0-.333,0-.5m177.765-7.416c-.027-.054-.043-.147-.082-.158-.213-.056-.435-.08-.648-.137-.238-.065-.319.005-.231.233a.337.337,0,0,0,.152.167c.345.17.754.111-.155-.4a.382.382,0,0,0-.356-.486c-.551-.039-1.106-.013-2.914-.013a8.113,8.113,0,0,1,1,.011c.257.032.365-.026.24-.252a.567.567,0,0,0-.386-.245,7.322,7.322,0,0,1-1-.029,7.107,7.107,0,0,1-1.052-.477.411.411,0,0,0-.248,0,.459.459,0,0,0-.2.123.321.321,0,0,0-.074.166c.33.221.451.721.959.7.251-.008.5,0,2.007,0a.382.382,0,0,0,.356.486,15.414,15.414,0,0,1,2.623.3M47.352,6.5a12.563,12.563,0,0,1-2.193-.027c-.793-.142-1.313.437-1.995.522-.393.049-.794.038-1.182.106-.078.014-.115.258-.171.4a9.978,9.978,0,0,0-1.989.03c-.6.125-1.078.578-1.8.5-.688-.075-1.506-.3-2.033.468L34.5,8.506c-.37.607-.972.495-1.541.492-.163,0-.425-.046-.473.032-.381.61-1.007.417-1.546.508-.456.718-1.258.234-1.785.5a4.651,4.651,0,0,1-1.775.543c-.062,0-.14.1-.168.17a.673.673,0,0,0-.007.245,6.41,6.41,0,0,1-1.5-.023c-.678-.169-1,.492-1.555.517-.5.022-1-.009-1.507.008-.485.017-.707.629-1.3.52-.376-.069-1.412.65-2.15.971a4.151,4.151,0,0,0-.733.014c-.105.02-.19.176-.268.283-.008.011.1.149.162.154a5.444,5.444,0,0,0,.937.036c.127-.011.33-.148.347-.252.078-.476-.323-.117.015-.234.5,0,1-.011,1.506,0s.7-.663,1.3-.516a3.355,3.355,0,0,0,2.695-.729,1.545,1.545,0,0,1,.9-.258,4.958,4.958,0,0,0,.969-.089c.087-.02.122-.265.181-.406H28.95a1.313,1.313,0,0,1,1.533-.479c.6.135.769-.556,1.293-.527.578.032,1.16,0,1.74-.014.06,0,.13-.1.174-.169.348-.525,1.052-.076,1.324-.369A1.648,1.648,0,0,1,36.6,9.014c.624.068.855-.718,1.546-.544a2.8,2.8,0,0,0,1.718-.017,4.943,4.943,0,0,1,1.776-.538c.062,0,.14-.1.169-.17a.691.691,0,0,0,.006-.245c1.16-.105,2.4.338,3.455-.5.64-.028,1.28-.044,1.917-.1a4.8,4.8,0,0,1,1.772-.857V6c-.408,0-.818-.02-1.223.012a.543.543,0,0,0-.369.25c-.12.222-.013.257.234.248.815-.029,1.632,0,2.447-.024.1,0,.2-.176.282-.282.006-.007-.105-.155-.165-.157a10.3,10.3,0,0,0-2.809.452M52.628,6a1.472,1.472,0,0,0,.486-.014c.094-.035.155-.2.193-.316.011-.035-.1-.158-.164-.161a6.2,6.2,0,0,0-.981.008c-.077.008-.152.2-.189.315-.012.036.1.152.164.161a3.328,3.328,0,0,0,.49.008m2.108-.578.171-.17c-.057-.057-.1-.143-.174-.164a.962.962,0,0,0-.449-.073,1.286,1.286,0,0,0-.385.237,1.317,1.317,0,0,0,.385.237,1.312,1.312,0,0,0,.451-.068m114.936,3.74a.555.555,0,0,0-.832-.01.186.186,0,0,0-.011.166.548.548,0,0,0,.828.011c.029-.038.011-.111.015-.167M51.2,5.932l.179-.177a1.56,1.56,0,0,0-.338-.156c-.041-.009-.109.1-.165.156l.325.177M15.439,14.409l.179-.177a1.571,1.571,0,0,0-.337-.156c-.042-.009-.11.1-.166.156l.325.177m-1.4.393-.179-.321c-.056.056-.167.123-.158.164a1.563,1.563,0,0,0,.158.335l.179-.177" transform="translate(0 0)" fill="#35bda4"/>
    </g>
  </g>
</svg>
