<svg xmlns="http://www.w3.org/2000/svg" width="20.964" height="20.964" viewBox="0 0 20.964 20.964">
  <path id="icon-linkdin" d="M156.832,404.818a2.488,2.488,0,1,1,1.779.749A2.43,2.43,0,0,1,156.832,404.818Zm-.419,16.659V407.485h4.35v13.992Zm16.284,0v-6.832a7.54,7.54,0,0,0-.282-2.434,1.971,1.971,0,0,0-2.012-1.264,2.19,2.19,0,0,0-2.1,1.124,5.2,5.2,0,0,0-.469,2.48v6.926h-4.3V407.485h4.165V409.4h.046a3.766,3.766,0,0,1,1.5-1.545,4.617,4.617,0,0,1,2.621-.749q3.043,0,4.259,1.919a9.482,9.482,0,0,1,.934,4.774v7.675Z" transform="translate(-156.083 -400.513)" fill="#fafcfe"/>
</svg>