<svg xmlns="http://www.w3.org/2000/svg" width="213.467" height="243.078" viewBox="0 0 213.467 243.078"><defs><style>.a{opacity:0.1;}.b{fill:#00609c;}</style></defs><g class="a" transform="translate(-186.252 -78.934)"><g transform="translate(186.252 78.934)"><g transform="translate(5.892 7.685)"><path class="b" d="M217.628,82.608,188.351,92.851v-.965l29.276-10.277Z" transform="translate(-187.699 -80.954)"/><path class="b" d="M188.794,93.947a.659.659,0,0,1-.652-.652v-.966a.644.644,0,0,1,.436-.611L217.856,81.44a.629.629,0,0,1,.592.081.654.654,0,0,1,.274.533v1a.648.648,0,0,1-.436.614L189.012,93.91A.67.67,0,0,1,188.794,93.947Z" transform="translate(-188.142 -81.399)"/></g><g transform="translate(35.151 7.691)"><path class="b" d="M197.736,82.608,227,92.89v-.964L197.736,81.609Z" transform="translate(-197.084 -80.961)"/><path class="b" d="M227.446,93.984a.628.628,0,0,1-.215-.041L197.963,83.661a.648.648,0,0,1-.436-.614v-1a.654.654,0,0,1,.274-.533.678.678,0,0,1,.592-.081l29.268,10.316a.648.648,0,0,1,.436.614v.963a.654.654,0,0,1-.274.533A.663.663,0,0,1,227.446,93.984Z" transform="translate(-197.527 -81.401)"/></g><g transform="translate(120.89 109.401)"><path class="b" d="M258.705,118.973l-3.061-.589c-.343-.072-.48.118-.489.489a4,4,0,0,1-1.712,3.364c-1.387,1.094-2.307,1.026-5.11.518-3.445-.639-5.643,2.9-5.643,4.988l-2.2-.383c-.358-.075-.873.041-.873.879a4.957,4.957,0,0,1-1.549,3.489,4.31,4.31,0,0,1-3.105.739c-1.811-.3-2.466.234-2.466,1.493,0-1.259-.689-2-2.475-2.307a6.181,6.181,0,0,1-3.2-1.811,6.88,6.88,0,0,1-1.59-3.909,4.17,4.17,0,0,1,2.089-.165c2.793.514,3.716.577,5.116-.5a4.077,4.077,0,0,0,1.718-3.367c0-.377.125-.558.464-.5l3.065.586c0-2.391,1.172-4.655,4.022-4.835v-.022l20.133-2.9C259.628,114.78,258.705,116.834,258.705,118.973Z" transform="translate(-224.585 -113.584)"/><path class="b" d="M232.942,135.052a.653.653,0,0,1-.652-.652c0-.677-.147-1.359-1.93-1.662a6.808,6.808,0,0,1-3.573-2.023,7.526,7.526,0,0,1-1.758-4.312.646.646,0,0,1,.443-.648,4.678,4.678,0,0,1,2.413-.19c2.737.505,3.326.6,4.6-.374a3.423,3.423,0,0,0,1.465-2.868,1.008,1.008,0,0,1,.994-1.144,2.088,2.088,0,0,1,.24.025l2.335.446c.231-2.232,1.484-4.433,4.433-4.7a.591.591,0,0,1,.106-.028l20.133-2.9a.661.661,0,0,1,.733.521.654.654,0,0,1-.483.758c-2.454.6-2.644,3.3-2.644,4.106a.65.65,0,0,1-.237.5.675.675,0,0,1-.536.14l-2.781-.539a4.679,4.679,0,0,1-1.961,3.676,4.084,4.084,0,0,1-2.765,1.007,17.025,17.025,0,0,1-2.859-.362c-3.04-.552-4.873,2.656-4.876,4.346a.659.659,0,0,1-.231.5.751.751,0,0,1-.533.14l-2.2-.383c-.072-.034-.106.047-.106.237a5.537,5.537,0,0,1-1.808,4,5.031,5.031,0,0,1-3.613.867,4.386,4.386,0,0,0-.764-.072c-.736,0-.935.2-.935.923A.654.654,0,0,1,232.942,135.052Zm-6.553-8.2a6.132,6.132,0,0,0,1.359,2.98,5.534,5.534,0,0,0,2.825,1.615,3.916,3.916,0,0,1,2.435,1.163,3.158,3.158,0,0,1,2.507-.352,3.529,3.529,0,0,0,2.594-.6,4.328,4.328,0,0,0,1.3-2.977,1.347,1.347,0,0,1,1.662-1.515l1.478.259c.43-2.466,2.834-5.527,6.344-4.867,2.756.5,3.339.592,4.589-.39a3.351,3.351,0,0,0,1.465-2.874,1.023,1.023,0,0,1,1.007-1.135,2.547,2.547,0,0,1,.265.028l2.313.446a5.772,5.772,0,0,1,1.044-2.909l-17.184,2.472a.6.6,0,0,1-.2.047c-3.164.2-3.408,3.255-3.408,4.187a.652.652,0,0,1-.776.639l-2.768-.53a4.726,4.726,0,0,1-1.958,3.682,4.148,4.148,0,0,1-2.768.994,16.346,16.346,0,0,1-2.862-.365A3.452,3.452,0,0,0,226.389,126.856Z" transform="translate(-225.029 -114.026)"/></g><g transform="translate(78.475 137.432)"><path class="b" d="M227.62,123.543c8.9,1.275,15.257,5.172,19.179,11.641q5.845,9.6,5.817,29.075v63.315H231.611v-60.3q0-19.5-5.8-29.078a23.719,23.719,0,0,0-14.182-10.522Q217,122.025,227.62,123.543Z" transform="translate(-210.981 -122.579)"/><path class="b" d="M253.06,228.663H232.054a.653.653,0,0,1-.652-.652v-60.3c0-12.826-1.917-22.493-5.7-28.738a23.225,23.225,0,0,0-13.811-10.235.654.654,0,0,1-.29-1.076c3.713-3.9,9.287-5.353,16.551-4.327,9.01,1.291,15.622,5.312,19.647,11.947,3.978,6.531,5.911,16.155,5.911,29.414v63.315A.653.653,0,0,1,253.06,228.663Zm-20.352-1.306h19.7V164.7c0-12.835-1.924-22.5-5.718-28.738-3.869-6.375-9.992-10.082-18.718-11.332-6.322-.9-11.251.171-14.653,3.189a24.257,24.257,0,0,1,13.5,10.478c3.906,6.453,5.892,16.352,5.892,29.418Z" transform="translate(-211.424 -123.017)"/></g><g transform="translate(154.051 148.009)"><path class="b" d="M249.184,126.815c7.445,1.066,12.77,4.552,16.059,10.419q4.873,8.721,4.87,26.066v57.086H249.106V166.325c0-11.582-1.637-20.246-4.879-26.072a19.515,19.515,0,0,0-8.352-8.078C238.933,127.794,243.379,125.98,249.184,126.815Z" transform="translate(-235.222 -125.969)"/><path class="b" d="M270.556,221.479H249.549a.653.653,0,0,1-.652-.652V166.765c0-11.373-1.612-20.037-4.795-25.754a18.976,18.976,0,0,0-8.081-7.816.645.645,0,0,1-.337-.421.659.659,0,0,1,.1-.533c3.211-4.589,7.909-6.491,13.939-5.63,7.582,1.085,13.147,4.7,16.533,10.746,3.289,5.886,4.954,14.762,4.954,26.384v57.086A.653.653,0,0,1,270.556,221.479ZM250.2,220.173h19.7V163.741c0-11.4-1.612-20.059-4.785-25.748-3.224-5.752-8.321-9.053-15.582-10.092-5.247-.745-9.35.758-12.249,4.489a20.271,20.271,0,0,1,7.95,7.984c3.3,5.917,4.966,14.793,4.966,26.39Z" transform="translate(-235.666 -126.409)"/></g><g transform="translate(35.151 8.684)"><path class="b" d="M197.736,81.929,227,92.211l-7.255,2.36V92.834l-22.012-7.6Z" transform="translate(-197.084 -81.276)"/><path class="b" d="M220.192,95.669a.651.651,0,0,1-.655-.655V93.745l-21.571-7.454a.655.655,0,0,1-.44-.617v-3.3a.654.654,0,0,1,.274-.533.647.647,0,0,1,.592-.081L227.662,92.04a.655.655,0,0,1,.436.62.643.643,0,0,1-.452.611l-7.255,2.363A.624.624,0,0,1,220.192,95.669ZM198.83,85.209,220.4,92.66a.658.658,0,0,1,.44.617v.842l4.57-1.49L198.83,83.292Z" transform="translate(-197.527 -81.72)"/></g><g transform="translate(5.892 8.685)"><path class="b" d="M217.628,81.929,188.351,92.172l7.191,2.356V92.864l22.066-7.633Z" transform="translate(-187.698 -81.277)"/><path class="b" d="M195.986,95.625a.674.674,0,0,1-.2-.034l-7.192-2.357a.654.654,0,0,1-.449-.611.645.645,0,0,1,.436-.62l29.277-10.244a.65.65,0,0,1,.867.62l-.019,3.3a.651.651,0,0,1-.44.614L196.641,93.77v1.2a.656.656,0,0,1-.655.652Zm-5.16-3.027,4.508,1.475v-.764a.652.652,0,0,1,.44-.617l21.63-7.482.009-1.917Z" transform="translate(-188.142 -81.72)"/></g><g transform="translate(15.544)"><path class="b" d="M211.07,86.831h-.019v0l-19.6,6.884a20.45,20.45,0,0,1,39.179.012l-19.557-6.9Z" transform="translate(-190.793 -78.491)"/><path class="b" d="M231.071,94.824a.669.669,0,0,1-.218-.037l-19.348-6.821-19.4,6.809a.655.655,0,0,1-.842-.8,21.1,21.1,0,0,1,40.429.016.653.653,0,0,1-.624.839ZM211.73,86.662l18.3,6.453a19.8,19.8,0,0,0-37.1-.012l18.282-6.419a.712.712,0,0,1,.514-.022Z" transform="translate(-191.238 -78.934)"/></g><g transform="translate(35.135 11.987)"><path class="b" d="M234.718,312.776v-72.7q0-18.808,5.222-25.92c3.56-4.748,9.269-6.538,17.119-5.415,8.9,1.275,15.257,5.172,19.179,11.641q5.845,9.6,5.817,29.075v63.315h29.592V247.918c0-20.9,6.229-30.446,18.31-28.713,7.445,1.066,12.77,4.552,16.059,10.419q4.873,8.721,4.87,26.066v57.086H374.76V206.4l-19.173-3.367c-.231-2.011-2.023-5.518-4.8-6.026-2.457-.443-3.3-.7-4.539-2.189a5.651,5.651,0,0,1-1.543-3.81c0-.34-.125-.586-.443-.633l-2.812-.549a6.629,6.629,0,0,0-5.468-6.75l-13.243-2.666c-4.153-.836-5.786,1.883-5.786,4.723l-3.061-.589c-.343-.072-.48.118-.489.489a4,4,0,0,1-1.712,3.364c-1.387,1.094-2.307,1.026-5.11.518-3.445-.639-5.643,2.9-5.643,4.988l-2.2-.383c-.358-.075-.873.041-.873.879a4.957,4.957,0,0,1-1.549,3.489,4.31,4.31,0,0,1-3.105.739c-1.811-.3-2.466.234-2.466,1.493,0-1.259-.689-2-2.475-2.307a6.181,6.181,0,0,1-3.2-1.811,7.013,7.013,0,0,1-1.612-4.1,1.1,1.1,0,0,0-.92-1.213l-2.323-.412c0-2.145-2.357-6.634-6.086-7.314-3.068-.567-4.143-.876-5.708-2.588a6.049,6.049,0,0,1-1.939-4.309c-.019-.39-.153-.652-.555-.733l-3.56-.683c0-3.071-1.9-6.737-6.89-7.735l-16.794-3.379c-2.831-.564-4.7.041-5.87,1.216V118.884c-1.986-.624-2.669-.907-3.682-2.123a4.391,4.391,0,0,1-1.231-2.9.5.5,0,0,0-.365-.518l-2.26-.7a5.887,5.887,0,0,0-4.361-5.484l-1.16-.374V90.592l-22.013-7.6-.016,229.788Zm-20.86-207.943-3.464-1.122c-3.283-1.051-4.561.677-4.561,2.666l-1.924-.611v-11.4c0-2.687,2.117-3.685,5.007-2.706,3.168,1.1,4.941,3.5,4.941,6.045Zm10.6,45.376-17.767-4.3v-24.9c0-4.374,4.062-6.765,8.988-5.362,4.882,1.4,8.779,6,8.779,10.266Z" transform="translate(-197.079 -82.336)"/><path class="b" d="M375.2,313.87H351.328a.653.653,0,0,1-.652-.652V256.133c0-11.4-1.612-20.059-4.785-25.748-3.224-5.752-8.321-9.053-15.582-10.092-11.682-1.674-17.565,7.763-17.565,28.068v64.858a.656.656,0,0,1-.655.652H282.5a.654.654,0,0,1-.655-.652V249.9c0-12.835-1.924-22.5-5.718-28.738-3.869-6.375-9.992-10.082-18.718-11.332-7.654-1.107-13.085.6-16.5,5.163-3.376,4.592-5.091,13.184-5.091,25.527v72.7a.651.651,0,0,1-.652.652H198.174a.663.663,0,0,1-.458-.19.647.647,0,0,1-.193-.461l.016-229.788a.652.652,0,0,1,.864-.617l22.013,7.6a.658.658,0,0,1,.44.617v15.713l.708.231a6.551,6.551,0,0,1,4.792,5.618l1.824.571A1.159,1.159,0,0,1,229,114.3a3.765,3.765,0,0,0,1.085,2.485c.879,1.063,1.391,1.3,3.37,1.917a.648.648,0,0,1,.458.62V163.9a7.671,7.671,0,0,1,5.347-.549l16.8,3.386c5.16,1.029,7.183,4.742,7.392,7.828l3.049.583a1.3,1.3,0,0,1,1.085,1.344,5.372,5.372,0,0,0,1.768,3.9c1.4,1.531,2.26,1.821,5.347,2.388,3.807.7,6.245,4.9,6.578,7.4l1.824.321a1.75,1.75,0,0,1,1.462,1.855A6.39,6.39,0,0,0,286,196.007a5.529,5.529,0,0,0,2.821,1.612,3.917,3.917,0,0,1,2.435,1.163,3.158,3.158,0,0,1,2.507-.352,3.529,3.529,0,0,0,2.594-.6,4.328,4.328,0,0,0,1.3-2.977,1.347,1.347,0,0,1,1.662-1.515l1.478.259c.43-2.466,2.834-5.527,6.344-4.867,2.756.5,3.339.592,4.589-.39a3.351,3.351,0,0,0,1.465-2.874,1.023,1.023,0,0,1,1.007-1.135,2.548,2.548,0,0,1,.265.028l2.313.446c.334-3.426,2.881-5.315,6.528-4.58l13.244,2.666a7.218,7.218,0,0,1,5.973,6.849l2.3.446a1.176,1.176,0,0,1,.97,1.275,5,5,0,0,0,1.394,3.392c1.085,1.306,1.712,1.525,4.153,1.964,2.849.524,4.789,3.726,5.253,6.1l18.715,3.289a.65.65,0,0,1,.539.642V313.219A.653.653,0,0,1,375.2,313.87Zm-23.223-1.306h22.571V207.392l-18.634-3.273a.652.652,0,0,1-.536-.567c-.2-1.715-1.79-5-4.268-5.459-2.541-.455-3.554-.761-4.923-2.413a6.271,6.271,0,0,1-1.693-4.209l-2.728-.555a.658.658,0,0,1-.527-.642,6.012,6.012,0,0,0-4.945-6.11l-13.243-2.669a6.7,6.7,0,0,0-1.312-.14c-3.426,0-3.694,3.236-3.694,4.227a.65.65,0,0,1-.237.5.675.675,0,0,1-.536.14l-2.781-.539a4.679,4.679,0,0,1-1.961,3.676,4.085,4.085,0,0,1-2.765,1.007,17.021,17.021,0,0,1-2.859-.362c-3.04-.552-4.873,2.656-4.876,4.346a.659.659,0,0,1-.231.5.751.751,0,0,1-.533.14l-2.2-.383c-.072-.034-.106.047-.106.237a5.537,5.537,0,0,1-1.808,4,5.031,5.031,0,0,1-3.613.867,4.378,4.378,0,0,0-.764-.072c-.736,0-.935.2-.935.923a.653.653,0,0,1-1.306,0c0-.676-.147-1.359-1.93-1.662a6.808,6.808,0,0,1-3.573-2.023,7.652,7.652,0,0,1-1.78-4.53c0-.343-.122-.533-.371-.571l-2.335-.412a.653.653,0,0,1-.539-.642c0-1.989-2.285-6.076-5.546-6.675-3.2-.589-4.383-.938-6.076-2.787a6.633,6.633,0,0,1-2.108-4.732l-3.585-.792a.651.651,0,0,1-.53-.639c0-2.687-1.668-6.157-6.366-7.1L239,164.625c-2.335-.465-4.14-.109-5.281,1.041a.649.649,0,0,1-.711.143.657.657,0,0,1-.4-.6V119.8a6.263,6.263,0,0,1-3.532-2.182,5.067,5.067,0,0,1-1.381-3.292l-2.167-.627a.652.652,0,0,1-.458-.62,5.222,5.222,0,0,0-3.913-4.867L220,107.842a.645.645,0,0,1-.455-.617V91.5l-20.707-7.158-.012,228.22h35.681V240.523c0-12.626,1.8-21.477,5.347-26.306,3.694-4.92,9.668-6.815,17.736-5.674,9.01,1.291,15.622,5.312,19.647,11.947,3.978,6.531,5.911,16.155,5.911,29.414v62.66h28.289v-64.2c0-21.225,6.45-31.176,19.055-29.358,7.582,1.085,13.147,4.7,16.533,10.746,3.289,5.886,4.954,14.762,4.954,26.384ZM224.9,151.307a.516.516,0,0,1-.153-.022l-17.767-4.3a.656.656,0,0,1-.5-.633v-24.9c0-3.779,2.837-6.416,6.9-6.416a10.651,10.651,0,0,1,2.921.427c5.1,1.459,9.253,6.344,9.253,10.893v24.3a.652.652,0,0,1-.249.511A.635.635,0,0,1,224.9,151.307Zm-17.116-5.465,16.464,3.984V126.357c0-4.006-3.726-8.33-8.308-9.64a9.243,9.243,0,0,0-2.563-.377c-3.345,0-5.593,2.054-5.593,5.113Zm-1.512-38.368a.7.7,0,0,1-.2-.031l-1.924-.617a.652.652,0,0,1-.455-.617v-11.4a3.419,3.419,0,0,1,3.641-3.726,6.96,6.96,0,0,1,2.226.4c3.32,1.154,5.384,3.7,5.384,6.662v7.13a.65.65,0,0,1-.268.527.667.667,0,0,1-.586.094l-3.464-1.125a5.386,5.386,0,0,0-1.6-.284,2.037,2.037,0,0,0-2.1,2.332.65.65,0,0,1-.268.527A.639.639,0,0,1,206.276,107.474Zm-1.269-1.743.7.221c.408-2.291,2.475-3.333,5.334-2.422l2.609.851V98.146c0-2.385-1.724-4.468-4.5-5.431a5.724,5.724,0,0,0-1.8-.33,2.125,2.125,0,0,0-2.335,2.422Z" transform="translate(-197.522 -82.779)"/></g><g transform="translate(14.154 92.412)"><path class="b" d="M249.8,108.786c-3,.458-4.24,2.815-4.24,5.3l-3.9-.748c-.443-.1-.586.128-.6.536a4.286,4.286,0,0,1-2.192,3.772c-1.78,1.178-2.974,1.076-6.541.421a6.2,6.2,0,0,0-7.211,5.5l-2.815-.5a.885.885,0,0,0-1.135.979,5.267,5.267,0,0,1-1.986,3.925,6.185,6.185,0,0,1-4,.758c-2.323-.383-3.177.19-3.177,1.612V258.146H191l.009-124.086c0-1.431.851-2,3.167-1.612a6.22,6.22,0,0,0,4.012-.764,5.275,5.275,0,0,0,1.97-3.913.888.888,0,0,1,1.138-.985l2.821.489a6.212,6.212,0,0,1,7.208-5.5c3.557.658,4.764.758,6.535-.415a4.217,4.217,0,0,0,2.185-3.769c.022-.412.168-.633.624-.533l3.9.742c0-2.463,1.21-4.8,4.153-5.291Z" transform="translate(-190.349 -108.132)"/><path class="b" d="M212.45,259.242H191.444a.663.663,0,0,1-.458-.19.646.646,0,0,1-.193-.461L190.8,134.5c0-1.288.664-2.793,3.925-2.254a5.567,5.567,0,0,0,3.545-.664,4.631,4.631,0,0,0,1.68-3.37,1.5,1.5,0,0,1,1.546-1.659,1.82,1.82,0,0,1,.349.031l2.139.371a7.048,7.048,0,0,1,6.644-5.493,6.9,6.9,0,0,1,1.256.115c3.545.655,4.414.767,6.057-.318a3.583,3.583,0,0,0,1.9-3.239c.053-1.082.745-1.3,1.419-1.157l3.146.6a5.449,5.449,0,0,1,4.658-5.147l21.087-3.729a.623.623,0,0,1,.742.536.646.646,0,0,1-.53.745l-.274.05a4.338,4.338,0,0,0-3.426,4.608.665.665,0,0,1-.237.5.657.657,0,0,1-.539.137l-3.722-.714a5.007,5.007,0,0,1-2.485,4.178,5.425,5.425,0,0,1-3.224,1.01,21.939,21.939,0,0,1-3.794-.493,5.565,5.565,0,0,0-6.444,4.86.645.645,0,0,1-.234.5.7.7,0,0,1-.53.14l-2.815-.5c-.274,0-.368-.006-.368.34a5.9,5.9,0,0,1-2.279,4.464,6.863,6.863,0,0,1-4.467.86,7.012,7.012,0,0,0-1.132-.109c-1.088,0-1.288.362-1.288,1.079V258.591A.651.651,0,0,1,212.45,259.242ZM192.1,257.936h19.7V130.782c0-1.288.667-2.8,3.934-2.254a5.483,5.483,0,0,0,3.535-.658,4.635,4.635,0,0,0,1.693-3.383,1.5,1.5,0,0,1,1.549-1.649,2.3,2.3,0,0,1,.334.025l2.139.377a6.937,6.937,0,0,1,6.634-5.493,6.843,6.843,0,0,1,1.275.122c3.576.652,4.427.761,6.061-.324a3.658,3.658,0,0,0,1.9-3.252c.053-1.063.745-1.306,1.4-1.15l3.143.6a6.023,6.023,0,0,1,1.253-3.217L229.279,113.6a4.317,4.317,0,0,0-3.61,4.648.643.643,0,0,1-.237.5.629.629,0,0,1-.536.14l-3.75-.711a4.9,4.9,0,0,1-2.482,4.171,5.387,5.387,0,0,1-3.217,1.01,22.062,22.062,0,0,1-3.794-.493,5.577,5.577,0,0,0-6.438,4.857.649.649,0,0,1-.761.642l-2.821-.489c-.281-.016-.377-.016-.377.343A5.908,5.908,0,0,1,199,132.668a6.794,6.794,0,0,1-4.48.867,7.047,7.047,0,0,0-1.138-.106c-1.085,0-1.272.346-1.272,1.076Z" transform="translate(-190.792 -108.576)"/></g><g transform="translate(0 11.987)"><path class="b" d="M186.462,249.193v63.583h35.157L221.61,82.988l-22.066,7.635v16.187l-1.157.377a5.839,5.839,0,0,0-4.374,5.437l-2.263.72a.505.505,0,0,0-.368.518,4.373,4.373,0,0,1-1.244,2.9c-1.01,1.225-1.68,1.509-3.676,2.126v130.3ZM213.51,106.41c0-2-1.284-3.725-4.577-2.653l-3.482,1.122v-7.1c0-2.556,1.783-4.966,4.969-6.07,2.9-.988,5.007-.009,5.007,2.687v11.389ZM194.9,126.774c0-4.287,3.9-8.882,8.785-10.269,4.938-1.406,8.994.985,8.994,5.365v24.891l-17.78,4.2Z" transform="translate(-185.807 -82.336)"/><path class="b" d="M222.064,313.87H186.907a.654.654,0,0,1-.655-.652V119.333a.648.648,0,0,1,.461-.62c1.973-.614,2.479-.848,3.364-1.92a3.766,3.766,0,0,0,1.1-2.51,1.149,1.149,0,0,1,.811-1.113l1.839-.589a6.542,6.542,0,0,1,4.8-5.568l.7-.234V91.066a.652.652,0,0,1,.44-.617l22.066-7.635a.652.652,0,0,1,.864.617l.009,229.788a.657.657,0,0,1-.19.461A.676.676,0,0,1,222.064,313.87Zm-34.505-1.306h33.854L221.4,84.344l-20.76,7.183v15.725a.659.659,0,0,1-.452.62l-1.154.377a5.2,5.2,0,0,0-3.928,4.817.656.656,0,0,1-.455.624l-2.266.72c.072.465.028,1.606-1.306,3.211a6.143,6.143,0,0,1-3.523,2.189Zm7.781-160.509a.654.654,0,0,1-.655-.652V127.217c0-4.558,4.156-9.446,9.262-10.9a10.7,10.7,0,0,1,2.931-.427c4.059,0,6.893,2.641,6.893,6.419V147.2a.647.647,0,0,1-.5.633l-17.78,4.2A.817.817,0,0,1,195.34,152.055ZM206.878,117.2a9.482,9.482,0,0,0-2.575.377c-4.583,1.3-8.311,5.627-8.311,9.643v23.363l16.476-3.891V122.313C212.468,119.255,210.223,117.2,206.878,117.2Zm7.077-9.689a.628.628,0,0,1-.38-.128.644.644,0,0,1-.271-.527,2.033,2.033,0,0,0-2.1-2.332,5.358,5.358,0,0,0-1.627.3l-3.489,1.125a.66.66,0,0,1-.58-.094.653.653,0,0,1-.271-.527v-7.1c0-2.968,2.073-5.527,5.409-6.684,3.383-1.15,5.877.3,5.877,3.3v11.389a.651.651,0,0,1-.449.62l-1.917.63A.677.677,0,0,1,213.955,107.508Zm-2.747-4.29a3.191,3.191,0,0,1,3.323,2.762l.689-.228V94.835a2.11,2.11,0,0,0-2.31-2.41,5.8,5.8,0,0,0-1.833.34c-2.793.966-4.53,3.055-4.53,5.453v6.21l2.631-.845A6.6,6.6,0,0,1,211.208,103.218Z" transform="translate(-186.252 -82.779)"/></g></g></g></svg>